<mxfile host="app.diagrams.net" agent="Mozilla/5.0 (Windows NT 10.0; Win64; x64) AppleWebKit/537.36 (KHTML, like Gecko) Chrome/127.0.0.0 Safari/537.36" version="24.7.6">
  <diagram name="Page-1" id="aacoLyA-k_K4pOIo_BN2">
    <mxGraphModel dx="880" dy="468" grid="1" gridSize="10" guides="1" tooltips="1" connect="1" arrows="1" fold="1" page="1" pageScale="1" pageWidth="4681" pageHeight="3300" math="0" shadow="0">
      <root>
        <mxCell id="0" />
        <mxCell id="1" parent="0" />
        <mxCell id="m_je0VN8-WCqHB_ttM-Q-1" value="Displaying&amp;nbsp;&lt;div&gt;Main Page&lt;/div&gt;" style="html=1;align=center;verticalAlign=top;rounded=1;absoluteArcSize=1;arcSize=10;dashed=0;whiteSpace=wrap;" parent="1" vertex="1">
          <mxGeometry x="390" y="120" width="140" height="40" as="geometry" />
        </mxCell>
        <mxCell id="m_je0VN8-WCqHB_ttM-Q-2" value="" style="ellipse;fillColor=strokeColor;html=1;" parent="1" vertex="1">
          <mxGeometry x="440" width="40" height="40" as="geometry" />
        </mxCell>
        <mxCell id="m_je0VN8-WCqHB_ttM-Q-3" value="" style="endArrow=block;html=1;rounded=0;align=center;verticalAlign=bottom;endFill=0;labelBackgroundColor=none;endSize=8;exitX=0.5;exitY=1;exitDx=0;exitDy=0;" parent="1" source="m_je0VN8-WCqHB_ttM-Q-2" edge="1">
          <mxGeometry relative="1" as="geometry">
            <mxPoint x="370" y="180" as="sourcePoint" />
            <mxPoint x="460" y="120" as="targetPoint" />
          </mxGeometry>
        </mxCell>
        <mxCell id="m_je0VN8-WCqHB_ttM-Q-4" value="" style="resizable=0;html=1;align=center;verticalAlign=top;labelBackgroundColor=none;" parent="m_je0VN8-WCqHB_ttM-Q-3" connectable="0" vertex="1">
          <mxGeometry relative="1" as="geometry" />
        </mxCell>
        <mxCell id="m_je0VN8-WCqHB_ttM-Q-7" value="Displaying&lt;br&gt;Search Bar" style="html=1;align=center;verticalAlign=top;rounded=1;absoluteArcSize=1;arcSize=10;dashed=0;whiteSpace=wrap;" parent="1" vertex="1">
          <mxGeometry x="390" y="240" width="140" height="40" as="geometry" />
        </mxCell>
        <mxCell id="m_je0VN8-WCqHB_ttM-Q-8" value="Displaying&lt;br&gt;Movie availability" style="html=1;align=center;verticalAlign=top;rounded=1;absoluteArcSize=1;arcSize=10;dashed=0;whiteSpace=wrap;" parent="1" vertex="1">
          <mxGeometry x="390" y="480" width="140" height="40" as="geometry" />
        </mxCell>
        <mxCell id="m_je0VN8-WCqHB_ttM-Q-9" value="Displaying&lt;br&gt;Relevant Movie" style="html=1;align=center;verticalAlign=top;rounded=1;absoluteArcSize=1;arcSize=10;dashed=0;whiteSpace=wrap;" parent="1" vertex="1">
          <mxGeometry x="390" y="360" width="140" height="40" as="geometry" />
        </mxCell>
        <mxCell id="m_je0VN8-WCqHB_ttM-Q-12" value="click book button" style="endArrow=block;html=1;rounded=0;align=center;verticalAlign=bottom;endFill=0;labelBackgroundColor=none;endSize=8;exitX=0.5;exitY=1;exitDx=0;exitDy=0;" parent="1" edge="1">
          <mxGeometry x="-0.25" y="51" relative="1" as="geometry">
            <mxPoint x="459.5" y="520" as="sourcePoint" />
            <mxPoint x="459.5" y="600" as="targetPoint" />
            <mxPoint as="offset" />
          </mxGeometry>
        </mxCell>
        <mxCell id="m_je0VN8-WCqHB_ttM-Q-13" value="display ticket booked" style="resizable=0;html=1;align=center;verticalAlign=top;labelBackgroundColor=none;" parent="m_je0VN8-WCqHB_ttM-Q-12" connectable="0" vertex="1">
          <mxGeometry relative="1" as="geometry">
            <mxPoint x="71" as="offset" />
          </mxGeometry>
        </mxCell>
        <mxCell id="m_je0VN8-WCqHB_ttM-Q-14" value="select date &amp;amp; time" style="endArrow=block;html=1;rounded=0;align=center;verticalAlign=bottom;endFill=0;labelBackgroundColor=none;endSize=8;exitX=0.5;exitY=1;exitDx=0;exitDy=0;" parent="1" edge="1">
          <mxGeometry x="-0.25" y="61" relative="1" as="geometry">
            <mxPoint x="459.5" y="400" as="sourcePoint" />
            <mxPoint x="459.5" y="480" as="targetPoint" />
            <mxPoint as="offset" />
          </mxGeometry>
        </mxCell>
        <mxCell id="m_je0VN8-WCqHB_ttM-Q-15" value="display movie availibility" style="resizable=0;html=1;align=center;verticalAlign=top;labelBackgroundColor=none;" parent="m_je0VN8-WCqHB_ttM-Q-14" connectable="0" vertex="1">
          <mxGeometry relative="1" as="geometry">
            <mxPoint x="71" as="offset" />
          </mxGeometry>
        </mxCell>
        <mxCell id="m_je0VN8-WCqHB_ttM-Q-16" value="enter selected Movie" style="endArrow=block;html=1;rounded=0;align=center;verticalAlign=bottom;endFill=0;labelBackgroundColor=none;endSize=8;exitX=0.5;exitY=1;exitDx=0;exitDy=0;" parent="1" edge="1">
          <mxGeometry x="-0.25" y="61" relative="1" as="geometry">
            <mxPoint x="459.5" y="280" as="sourcePoint" />
            <mxPoint x="459.5" y="360" as="targetPoint" />
            <mxPoint as="offset" />
          </mxGeometry>
        </mxCell>
        <mxCell id="m_je0VN8-WCqHB_ttM-Q-17" value="Display relevant movie" style="resizable=0;html=1;align=center;verticalAlign=top;labelBackgroundColor=none;" parent="m_je0VN8-WCqHB_ttM-Q-16" connectable="0" vertex="1">
          <mxGeometry relative="1" as="geometry">
            <mxPoint x="71" as="offset" />
          </mxGeometry>
        </mxCell>
        <mxCell id="m_je0VN8-WCqHB_ttM-Q-18" value="click search button" style="endArrow=block;html=1;rounded=0;align=center;verticalAlign=bottom;endFill=0;labelBackgroundColor=none;endSize=8;exitX=0.5;exitY=1;exitDx=0;exitDy=0;" parent="1" edge="1">
          <mxGeometry x="-0.25" y="61" relative="1" as="geometry">
            <mxPoint x="459.5" y="160" as="sourcePoint" />
            <mxPoint x="459.5" y="240" as="targetPoint" />
            <mxPoint as="offset" />
          </mxGeometry>
        </mxCell>
        <mxCell id="m_je0VN8-WCqHB_ttM-Q-19" value="display search bar" style="resizable=0;html=1;align=center;verticalAlign=top;labelBackgroundColor=none;" parent="m_je0VN8-WCqHB_ttM-Q-18" connectable="0" vertex="1">
          <mxGeometry relative="1" as="geometry">
            <mxPoint x="71" as="offset" />
          </mxGeometry>
        </mxCell>
        <mxCell id="m_je0VN8-WCqHB_ttM-Q-20" value="Displaying&lt;br&gt;Ticket Booked" style="html=1;align=center;verticalAlign=top;rounded=1;absoluteArcSize=1;arcSize=10;dashed=0;whiteSpace=wrap;" parent="1" vertex="1">
          <mxGeometry x="390" y="600" width="140" height="40" as="geometry" />
        </mxCell>
        <mxCell id="m_je0VN8-WCqHB_ttM-Q-21" value="choose payment method" style="endArrow=block;html=1;rounded=0;align=center;verticalAlign=bottom;endFill=0;labelBackgroundColor=none;endSize=8;exitX=0.5;exitY=1;exitDx=0;exitDy=0;" parent="1" edge="1">
          <mxGeometry x="-0.25" y="81" relative="1" as="geometry">
            <mxPoint x="459.5" y="640" as="sourcePoint" />
            <mxPoint x="459.5" y="720" as="targetPoint" />
            <mxPoint as="offset" />
          </mxGeometry>
        </mxCell>
        <mxCell id="m_je0VN8-WCqHB_ttM-Q-22" value="display payment successful" style="resizable=0;html=1;align=center;verticalAlign=top;labelBackgroundColor=none;" parent="m_je0VN8-WCqHB_ttM-Q-21" connectable="0" vertex="1">
          <mxGeometry relative="1" as="geometry">
            <mxPoint x="81" as="offset" />
          </mxGeometry>
        </mxCell>
        <mxCell id="m_je0VN8-WCqHB_ttM-Q-23" value="Displaying&lt;br&gt;Payment Successful" style="html=1;align=center;verticalAlign=top;rounded=1;absoluteArcSize=1;arcSize=10;dashed=0;whiteSpace=wrap;" parent="1" vertex="1">
          <mxGeometry x="390" y="720" width="140" height="40" as="geometry" />
        </mxCell>
        <mxCell id="m_je0VN8-WCqHB_ttM-Q-24" value="&lt;font style=&quot;font-size: 19px;&quot;&gt;UC04&lt;/font&gt;" style="text;html=1;align=center;verticalAlign=middle;resizable=0;points=[];autosize=1;strokeColor=none;fillColor=none;" parent="1" vertex="1">
          <mxGeometry x="540" y="20" width="70" height="40" as="geometry" />
        </mxCell>
        <mxCell id="m_je0VN8-WCqHB_ttM-Q-27" value="click back" style="endArrow=block;html=1;rounded=0;align=center;verticalAlign=bottom;endFill=0;labelBackgroundColor=none;endSize=8;exitX=1;exitY=0;exitDx=0;exitDy=0;entryX=1;entryY=0.5;entryDx=0;entryDy=0;" parent="1" source="m_je0VN8-WCqHB_ttM-Q-7" target="m_je0VN8-WCqHB_ttM-Q-1" edge="1">
          <mxGeometry x="0.0588" y="-60" relative="1" as="geometry">
            <mxPoint x="680" y="230" as="sourcePoint" />
            <mxPoint x="640" y="130" as="targetPoint" />
            <mxPoint as="offset" />
            <Array as="points">
              <mxPoint x="720" y="240" />
              <mxPoint x="720" y="140" />
            </Array>
          </mxGeometry>
        </mxCell>
        <mxCell id="m_je0VN8-WCqHB_ttM-Q-28" value="Display Main Page" style="resizable=0;html=1;align=center;verticalAlign=top;labelBackgroundColor=none;" parent="m_je0VN8-WCqHB_ttM-Q-27" connectable="0" vertex="1">
          <mxGeometry relative="1" as="geometry">
            <mxPoint x="71" as="offset" />
          </mxGeometry>
        </mxCell>
        <mxCell id="m_je0VN8-WCqHB_ttM-Q-29" value="No movie selected" style="endArrow=block;html=1;rounded=0;align=center;verticalAlign=bottom;endFill=0;labelBackgroundColor=none;endSize=8;entryX=1;entryY=1;entryDx=0;entryDy=0;" parent="1" target="m_je0VN8-WCqHB_ttM-Q-7" edge="1">
          <mxGeometry x="-0.0204" y="70" relative="1" as="geometry">
            <mxPoint x="530" y="250" as="sourcePoint" />
            <mxPoint x="760" y="330" as="targetPoint" />
            <Array as="points">
              <mxPoint x="760" y="250" />
              <mxPoint x="760" y="280" />
              <mxPoint x="650" y="280" />
            </Array>
            <mxPoint as="offset" />
          </mxGeometry>
        </mxCell>
        <mxCell id="m_je0VN8-WCqHB_ttM-Q-30" value="error message" style="resizable=0;html=1;align=center;verticalAlign=top;labelBackgroundColor=none;" parent="m_je0VN8-WCqHB_ttM-Q-29" connectable="0" vertex="1">
          <mxGeometry relative="1" as="geometry">
            <mxPoint x="60" y="5" as="offset" />
          </mxGeometry>
        </mxCell>
        <mxCell id="m_je0VN8-WCqHB_ttM-Q-31" value="" style="endArrow=none;html=1;endSize=12;startArrow=none;startSize=14;startFill=0;edgeStyle=orthogonalEdgeStyle;align=center;verticalAlign=bottom;endFill=0;rounded=0;" parent="1" edge="1">
          <mxGeometry y="3" relative="1" as="geometry">
            <mxPoint x="730" y="180" as="sourcePoint" />
            <mxPoint x="850" y="180" as="targetPoint" />
          </mxGeometry>
        </mxCell>
        <mxCell id="m_je0VN8-WCqHB_ttM-Q-32" value="" style="endArrow=none;html=1;endSize=12;startArrow=none;startSize=14;startFill=0;edgeStyle=orthogonalEdgeStyle;align=center;verticalAlign=bottom;endFill=0;rounded=0;" parent="1" edge="1">
          <mxGeometry y="3" relative="1" as="geometry">
            <mxPoint x="770" y="270" as="sourcePoint" />
            <mxPoint x="890" y="270" as="targetPoint" />
          </mxGeometry>
        </mxCell>
        <mxCell id="m_je0VN8-WCqHB_ttM-Q-33" value="" style="endArrow=none;html=1;endSize=12;startArrow=none;startSize=14;startFill=0;edgeStyle=orthogonalEdgeStyle;align=center;verticalAlign=bottom;endFill=0;rounded=0;" parent="1" edge="1">
          <mxGeometry y="3" relative="1" as="geometry">
            <mxPoint x="470" y="320" as="sourcePoint" />
            <mxPoint x="590" y="320" as="targetPoint" />
          </mxGeometry>
        </mxCell>
        <mxCell id="m_je0VN8-WCqHB_ttM-Q-34" value="" style="endArrow=none;html=1;endSize=12;startArrow=none;startSize=14;startFill=0;edgeStyle=orthogonalEdgeStyle;align=center;verticalAlign=bottom;endFill=0;rounded=0;" parent="1" edge="1">
          <mxGeometry y="3" relative="1" as="geometry">
            <mxPoint x="480" y="200" as="sourcePoint" />
            <mxPoint x="600" y="200" as="targetPoint" />
          </mxGeometry>
        </mxCell>
        <mxCell id="m_je0VN8-WCqHB_ttM-Q-35" value="" style="endArrow=none;html=1;endSize=12;startArrow=none;startSize=14;startFill=0;edgeStyle=orthogonalEdgeStyle;align=center;verticalAlign=bottom;endFill=0;rounded=0;" parent="1" edge="1">
          <mxGeometry y="3" relative="1" as="geometry">
            <mxPoint x="470" y="560" as="sourcePoint" />
            <mxPoint x="590" y="560" as="targetPoint" />
          </mxGeometry>
        </mxCell>
        <mxCell id="m_je0VN8-WCqHB_ttM-Q-36" value="" style="endArrow=none;html=1;endSize=12;startArrow=none;startSize=14;startFill=0;edgeStyle=orthogonalEdgeStyle;align=center;verticalAlign=bottom;endFill=0;rounded=0;" parent="1" edge="1">
          <mxGeometry y="3" relative="1" as="geometry">
            <mxPoint x="470" y="440" as="sourcePoint" />
            <mxPoint x="590" y="440" as="targetPoint" />
          </mxGeometry>
        </mxCell>
        <mxCell id="m_je0VN8-WCqHB_ttM-Q-37" value="" style="endArrow=none;html=1;endSize=12;startArrow=none;startSize=14;startFill=0;edgeStyle=orthogonalEdgeStyle;align=center;verticalAlign=bottom;endFill=0;rounded=0;" parent="1" edge="1">
          <mxGeometry y="3" relative="1" as="geometry">
            <mxPoint x="480" y="680" as="sourcePoint" />
            <mxPoint x="600" y="680" as="targetPoint" />
          </mxGeometry>
        </mxCell>
        <mxCell id="m_je0VN8-WCqHB_ttM-Q-39" value="Enter unavailable movie" style="endArrow=block;html=1;rounded=0;align=center;verticalAlign=bottom;endFill=0;labelBackgroundColor=none;endSize=8;exitX=0;exitY=0;exitDx=0;exitDy=0;" parent="1" source="m_je0VN8-WCqHB_ttM-Q-7" edge="1">
          <mxGeometry x="-0.0588" y="-80" relative="1" as="geometry">
            <mxPoint x="240" y="240" as="sourcePoint" />
            <mxPoint x="390" y="280" as="targetPoint" />
            <Array as="points">
              <mxPoint x="240" y="240" />
              <mxPoint x="240" y="280" />
            </Array>
            <mxPoint as="offset" />
          </mxGeometry>
        </mxCell>
        <mxCell id="m_je0VN8-WCqHB_ttM-Q-40" value="Display error message" style="resizable=0;html=1;align=center;verticalAlign=top;labelBackgroundColor=none;" parent="m_je0VN8-WCqHB_ttM-Q-39" connectable="0" vertex="1">
          <mxGeometry relative="1" as="geometry">
            <mxPoint x="-80" as="offset" />
          </mxGeometry>
        </mxCell>
        <mxCell id="m_je0VN8-WCqHB_ttM-Q-41" value="" style="endArrow=none;html=1;endSize=12;startArrow=none;startSize=14;startFill=0;edgeStyle=orthogonalEdgeStyle;align=center;verticalAlign=bottom;endFill=0;rounded=0;" parent="1" edge="1">
          <mxGeometry y="3" relative="1" as="geometry">
            <mxPoint x="100" y="259.5" as="sourcePoint" />
            <mxPoint x="220" y="259.5" as="targetPoint" />
          </mxGeometry>
        </mxCell>
        <mxCell id="m_je0VN8-WCqHB_ttM-Q-42" value="Redirect to Menu" style="endArrow=block;html=1;rounded=0;align=center;verticalAlign=bottom;endFill=0;labelBackgroundColor=none;endSize=8;exitX=0;exitY=0.5;exitDx=0;exitDy=0;entryX=0;entryY=0.5;entryDx=0;entryDy=0;" parent="1" source="m_je0VN8-WCqHB_ttM-Q-23" target="m_je0VN8-WCqHB_ttM-Q-1" edge="1">
          <mxGeometry x="0.0164" y="-70" relative="1" as="geometry">
            <mxPoint x="390" y="840" as="sourcePoint" />
            <mxPoint x="80" y="140" as="targetPoint" />
            <Array as="points">
              <mxPoint x="80" y="740" />
              <mxPoint x="80" y="140" />
            </Array>
            <mxPoint as="offset" />
          </mxGeometry>
        </mxCell>
        <mxCell id="m_je0VN8-WCqHB_ttM-Q-43" value="Display Menu" style="resizable=0;html=1;align=center;verticalAlign=top;labelBackgroundColor=none;" parent="m_je0VN8-WCqHB_ttM-Q-42" connectable="0" vertex="1">
          <mxGeometry relative="1" as="geometry">
            <mxPoint x="80" as="offset" />
          </mxGeometry>
        </mxCell>
        <mxCell id="m_je0VN8-WCqHB_ttM-Q-44" value="" style="endArrow=none;html=1;endSize=12;startArrow=none;startSize=14;startFill=0;edgeStyle=orthogonalEdgeStyle;align=center;verticalAlign=bottom;endFill=0;rounded=0;" parent="1" edge="1">
          <mxGeometry y="3" relative="1" as="geometry">
            <mxPoint x="110" y="440" as="sourcePoint" />
            <mxPoint x="200" y="440" as="targetPoint" />
          </mxGeometry>
        </mxCell>
        <mxCell id="21oBm80XhT8qSjqzNj6Q-1" value="" style="endArrow=block;html=1;rounded=0;align=center;verticalAlign=bottom;endFill=0;labelBackgroundColor=none;endSize=8;exitX=0.5;exitY=1;exitDx=0;exitDy=0;" edge="1" parent="1" source="m_je0VN8-WCqHB_ttM-Q-23" target="21oBm80XhT8qSjqzNj6Q-3">
          <mxGeometry relative="1" as="geometry">
            <mxPoint x="400" y="830" as="sourcePoint" />
            <mxPoint x="460" y="840" as="targetPoint" />
          </mxGeometry>
        </mxCell>
        <mxCell id="21oBm80XhT8qSjqzNj6Q-2" value="" style="resizable=0;html=1;align=center;verticalAlign=top;labelBackgroundColor=none;" connectable="0" vertex="1" parent="21oBm80XhT8qSjqzNj6Q-1">
          <mxGeometry relative="1" as="geometry" />
        </mxCell>
        <mxCell id="21oBm80XhT8qSjqzNj6Q-3" value="" style="ellipse;html=1;shape=endState;fillColor=strokeColor;" vertex="1" parent="1">
          <mxGeometry x="440" y="840" width="45" height="40" as="geometry" />
        </mxCell>
      </root>
    </mxGraphModel>
  </diagram>
</mxfile>
